# xmcd
#
# Track frame offsets: 
#        150
#        24905
#        45149
#        61654
#        89820
#        112206
#        133589
#        152910
#        174233
#        199659
#        228209
#        252970
#
# Disc length: 3684 seconds
#
# Revision: 0
# Processed by: cddbd v1.5.2PL0 Copyright (c) Steve Scherf et al.
# Submitted via: ExactAudioCopy v0.99pb5
#
DISCID=930e620c
DTITLE=Steve Clisby and Bill Risby - Golden Ring
DYEAR=2009
DGENRE=Blues
TTITLE0=Another Day
TTITLE1=Golden Ring
TTITLE2=Used to Love You
TTITLE3=Pass Me Over
TTITLE4=Girl You'll Never Change
TTITLE5=Blackbird
TTITLE6=Piano in the Dark
TTITLE7=Rocket Love
TTITLE8=Little Wing
TTITLE9=Plans We Made
TTITLE10=Come Rain Come Shine
TTITLE11=Single Life
EXTD=
EXTT0=
EXTT1=
EXTT2=
EXTT3=
EXTT4=
EXTT5=
EXTT6=
EXTT7=
EXTT8=
EXTT9=
EXTT10=
EXTT11=
PLAYORDER=
